<svg xmlns="http://www.w3.org/2000/svg" width="73" height="54.401" viewBox="0 0 73 54.401">
  <g id="coupons_logo_1_" data-name="coupons_logo (1)" transform="translate(0 -0.099)">
    <g id="Group_7" data-name="Group 7">
      <g id="Group_5" data-name="Group 5">
        <g id="Group_2" data-name="Group 2">
          <path id="Path_8" data-name="Path 8" d="M2,10.6s8.7,6.7,8.7,16.7S2,43.9,2,43.9s-.8,8.5,8.7,8.5c0,0,22.8-12.3,39.1-6.4A90.085,90.085,0,0,1,38,26.8C32.9,15.5,24.5,2.1,8.7,2.1,8.7,2.1,2,4.8,2,10.6Z" fill="#55f258"/>
        </g>
        <g id="Group_3" data-name="Group 3">
          <path id="Path_9" data-name="Path 9" d="M71.8,43.9s-8.7-6.7-8.7-16.7,8.7-16.7,8.7-16.7S72.6,2,63.1,2c0,0-21.4,12.2-37.7,6.3A75.317,75.317,0,0,1,37.7,27.2c5.1,11.3,11.7,25.2,27.5,25.2C65.2,52.5,71.8,49.8,71.8,43.9Z" fill="#44cd47"/>
        </g>
        <g id="Group_4" data-name="Group 4">
          <path id="Path_10" data-name="Path 10" d="M62.4,54.5c-1,0-6.6-.3-13-6.1-12-5.5-22.4-.6-30.1,3.1-3.5,1.7-6.4,3-8.7,3C3.8,54.5,0,50.6,0,43.9V42.8l.9-.6a18.488,18.488,0,0,0,7.6-15,18.488,18.488,0,0,0-7.6-15L0,11.7V10.6A10.5,10.5,0,0,1,10.5.1c.4,0,7.6-.2,15.5,6.1,11.8,5.5,21.2.6,28.1-3,3.4-1.7,6-3.1,8.4-3.1C69.2.1,73,3.9,73,10.6v1.2l-1,.6c-.3.2-7.5,4.3-7.5,14.9,0,10.7,7.4,14.9,7.5,14.9l1,.6V44A10.5,10.5,0,0,1,62.5,54.5ZM32,12.3a53.9,53.9,0,0,1,8,14.3c9.6,24.2,22.3,23.9,22.4,23.9A6.57,6.57,0,0,0,68.9,45c-2.5-1.8-8.4-7.2-8.4-17.7s6-15.9,8.5-17.7c-.3-3.8-2.3-5.4-6.5-5.4-1.4,0-3.9,1.3-6.6,2.7C50.2,9.8,42,14,32,12.3ZM4,44.9c.3,3.8,2.3,5.5,6.5,5.5,1.5,0,4.1-1.3,7-2.6C24,44.7,33.3,40.3,44,42.4A61.3,61.3,0,0,1,36.3,28C26.7,3.8,10.7,4.1,10.6,4.1A6.57,6.57,0,0,0,4.1,9.6a22.484,22.484,0,0,1,8.4,17.6A22.554,22.554,0,0,1,4,44.9Z" fill="#231f20"/>
        </g>
      </g>
      <path id="Path_11" data-name="Path 11" d="M11.1,42.5" fill="#231f20"/>
      <g id="Group_6" data-name="Group 6">
        <path id="Path_12" data-name="Path 12" d="M11.6,43.4l-1-1.7,3.4-2,1,1.7Zm6.9-4.1-1-1.7,3.4-2,1,1.7Zm6.8-4.1-1-1.7,3.4-2,1,1.7Zm6.9-4-1-1.7,3.4-2,1,1.7Zm6.9-4.1-1-1.7,3.4-2,1,1.7ZM46,23l-1-1.7,3.4-2,1,1.7Zm6.9-4.1-1-1.7,3.4-2,1,1.7Zm6.9-4.1-1-1.7,3-1.8,1,1.7Z" fill="#231f20"/>
      </g>
    </g>
  </g>
</svg>
