<svg xmlns="http://www.w3.org/2000/svg" width="29.006" height="34.97" viewBox="0 0 29.006 34.97">
  <g id="money-bag-with-dollar-symbol" transform="translate(-36.238 0)">
    <g id="Group_20" data-name="Group 20" transform="translate(36.238 0)">
      <g id="Group_13" data-name="Group 13" transform="translate(15.233 22.473)">
        <path id="Path_15" data-name="Path 15" d="M223.009,273.865a1.663,1.663,0,0,0-.467-.339,5.628,5.628,0,0,0-1.182-.418v3.128a2.222,2.222,0,0,0,1.752-.924h0a1.429,1.429,0,0,0,.13-.976A.982.982,0,0,0,223.009,273.865Z" transform="translate(-221.36 -273.108)" fill="#cecece"/>
      </g>
      <g id="Group_14" data-name="Group 14" transform="translate(16.981 24.677)">
        <path id="Path_16" data-name="Path 16" d="M242.6,299.906l0-.006h0Z" transform="translate(-242.604 -299.9)" fill="#cecece"/>
      </g>
      <g id="Group_15" data-name="Group 15" transform="translate(11.948 17.453)">
        <path id="Path_17" data-name="Path 17" d="M181.652,212.882a1.173,1.173,0,0,0-.2.55,1.319,1.319,0,0,0,.067.608.975.975,0,0,0,.379.417,2.956,2.956,0,0,0,.563.29c.164.066.349.129.548.19v-2.831A2.16,2.16,0,0,0,181.652,212.882Z" transform="translate(-181.441 -212.106)" fill="#cecece"/>
      </g>
      <g id="Group_16" data-name="Group 16" transform="translate(16.984 24.654)">
        <path id="Path_18" data-name="Path 18" d="M242.66,299.619l-.013.023h0Z" transform="translate(-242.647 -299.619)" fill="#cecece"/>
      </g>
      <g id="Group_17" data-name="Group 17" transform="translate(17.014 24.623)">
        <path id="Path_19" data-name="Path 19" d="M243,299.246Z" transform="translate(-243.004 -299.244)" fill="#cecece"/>
      </g>
      <g id="Group_18" data-name="Group 18" transform="translate(0 0)">
        <path id="Path_20" data-name="Path 20" d="M52.573,7.609C55.233,5.374,57.011.34,55.917.12c-1.453-.293-4.61.991-6.135,1.217-2.164.261-4.52-2.346-5.843-.893-1.076,1.182.771,5.48,3.66,7.352-8.62,4.236-20.735,25.5.4,27.046C77.244,36.977,62.6,11.737,52.573,7.609Zm2.512,16.772A3.075,3.075,0,0,1,53.9,26.469a4.533,4.533,0,0,1-2.428.857v.916a.86.86,0,1,1-1.72,0v-1c-.148-.028-.3-.062-.441-.1a4.223,4.223,0,0,1-2.1-1.295,3.793,3.793,0,0,1-.649-1.072c-.04-.1-.076-.206-.107-.311a1.6,1.6,0,0,1-.068-.291.86.86,0,0,1,1.672-.357c.033.1.055.2.092.3a1.917,1.917,0,0,0,.132.282,2.193,2.193,0,0,0,.378.483,2.56,2.56,0,0,0,1.095.6v-3.4A6.122,6.122,0,0,1,47.5,21.1a2.624,2.624,0,0,1-.761-.915,2.863,2.863,0,0,1-.266-1.231,2.934,2.934,0,0,1,.258-1.247,3.04,3.04,0,0,1,.706-.968,4.308,4.308,0,0,1,2.319-1.028v-.951a.86.86,0,1,1,1.72,0V15.7q.169.021.336.051a4.249,4.249,0,0,1,2.246,1.09,3.282,3.282,0,0,1,.688.988,3.152,3.152,0,0,1,.122.315,1.913,1.913,0,0,1,.081.307.86.86,0,0,1-1.654.435c-.036-.094-.054-.193-.091-.287a1.516,1.516,0,0,0-.141-.271,1.641,1.641,0,0,0-.406-.426,2.788,2.788,0,0,0-1.181-.461V20.7a10.921,10.921,0,0,1,1.469.436,3.435,3.435,0,0,1,1.793,1.4c-.061-.107-.12-.211,0,0s.063.11,0,0A3.068,3.068,0,0,1,55.085,24.381Z" transform="translate(-36.238 0)" fill="#cecece"/>
      </g>
      <g id="Group_19" data-name="Group 19" transform="translate(16.959 24.699)">
        <path id="Path_21" data-name="Path 21" d="M242.35,300.169l-.013.023Z" transform="translate(-242.337 -300.169)" fill="#cecece"/>
      </g>
    </g>
  </g>
</svg>
