<svg xmlns="http://www.w3.org/2000/svg" width="33" height="33" viewBox="0 0 33 33">
  <g id="edit_2_" data-name="edit (2)" transform="translate(0 -0.002)">
    <g id="Group_2" data-name="Group 2" transform="translate(0 0.002)">
      <g id="Group_1" data-name="Group 1" transform="translate(0 0)">
        <path id="Path_1" data-name="Path 1" d="M24.46,83.877a.772.772,0,0,0-1.061,0L9.134,98.154a.751.751,0,0,0,.195,1.2l1.171.586v1.972l-3.588,1.027L3.29,99.317l1.026-3.591h1.97L6.872,96.9a.751.751,0,0,0,.551.405.752.752,0,0,0,.65-.21L22.339,82.815a.751.751,0,0,0,0-1.061L19.58,78.993a.749.749,0,0,0-.53-.22h0a.75.75,0,0,0-.531.222L3.217,94.446c-.007.008-.007.019-.014.027a.734.734,0,0,0-.175.3l-1.3,4.56-1.7,5.949a.751.751,0,0,0,.721.957.763.763,0,0,0,.206-.029l5.944-1.7,4.556-1.3c.014,0,.023-.014.037-.019a1.388,1.388,0,0,0,.254-.149c.01-.009.022-.012.032-.021L27.216,87.7a.751.751,0,0,0,0-1.064Z" transform="translate(0 -73.234)" fill="#cecece"/>
        <path id="Path_2" data-name="Path 2" d="M302.014,5.357l-4.5-4.5a3.067,3.067,0,0,0-4.244,0L290.522,3.63a.751.751,0,0,0,0,1.059l7.657,7.663a.749.749,0,0,0,1.058,0L302.013,9.6a3,3,0,0,0,0-4.246Z" transform="translate(-269.892 -0.002)" fill="#cecece"/>
      </g>
    </g>
  </g>
</svg>
