<svg id="question" xmlns="http://www.w3.org/2000/svg" width="30.282" height="30.282" viewBox="0 0 30.282 30.282">
  <g id="Group_4" data-name="Group 4">
    <g id="Group_3" data-name="Group 3">
      <path id="Path_3" data-name="Path 3" d="M223.234,343.22a1.588,1.588,0,0,0,0,3.175,1.587,1.587,0,0,0,0-3.175Z" transform="translate(-208.557 -322.92)" fill="#cecece"/>
      <path id="Path_4" data-name="Path 4" d="M188.083,140c-2.783,0-4.061,1.649-4.061,2.763a1.182,1.182,0,0,0,1.237,1.175c1.113,0,.66-1.587,2.763-1.587,1.031,0,1.855.454,1.855,1.4,0,1.113-1.155,1.752-1.835,2.33a3.774,3.774,0,0,0-1.381,3.134c0,1.072.289,1.381,1.134,1.381,1.01,0,1.216-.454,1.216-.845a2.589,2.589,0,0,1,1.155-2.577c.557-.433,2.309-1.835,2.309-3.773S190.722,140,188.083,140Z" transform="translate(-173.138 -131.722)" fill="#cecece"/>
      <path id="Path_5" data-name="Path 5" d="M15.141,0A15.133,15.133,0,0,0,0,15.141V29.1a1.183,1.183,0,0,0,1.183,1.183H15.141A15.141,15.141,0,0,0,15.141,0Zm0,27.916H2.366V15.141A12.775,12.775,0,1,1,15.141,27.916Z" fill="#cecece"/>
    </g>
  </g>
</svg>
